<svg id="Layer_1" data-name="Layer 1" xmlns="http://www.w3.org/2000/svg" viewBox="0 0 202.53 37.06"><defs><style>.cls-1{fill:#be1823;}.cls-2{fill:#777;}</style></defs><title>logo00</title><path class="cls-1" d="M424.21,152.38h-9.73V129.73h9.62c9.73,0,11.43,6.18,11.43,11.32S433.88,152.38,424.21,152.38ZM423.82,134h-5l0.45,0.45v13.25l-0.45.45h5.15c5.87,0,6.76-3,6.76-7.07S429.75,134,423.82,134Z" transform="translate(-414.48 -115.6)"/><path class="cls-1" d="M466.7,152.38H448V129.73H466.7V134H452.27l0.45,0.45v4.05l-0.45.45h13.08v4.25H452.27l0.45,0.45v4.05l-0.45.45H466.7v4.25Z" transform="translate(-414.48 -115.6)"/><path class="cls-1" d="M489.19,152.65a15.32,15.32,0,0,1-10.76-4l3.3-3.3a11.32,11.32,0,0,0,7.63,3.08c3.72,0,5.06-1.17,5.06-2.43,0-.73-0.64-1.85-3.61-2.57-0.5-.11-3.66-0.89-4.19-1-4-1-7.63-2.54-7.63-6.37,0-3.61,3.44-6.57,9.92-6.57a13.35,13.35,0,0,1,9.87,3.88l-3.33,3.3a8.82,8.82,0,0,0-6.6-3c-3.69,0-5,1.17-5,2.24s1,1.54,4.7,2.46c0.5,0.14,3.13.81,3.66,0.92,4.72,1.15,7.07,3.61,7.07,6.63C499.26,149.41,496.18,152.65,489.19,152.65Z" transform="translate(-414.48 -115.6)"/><path class="cls-1" d="M530,134h-8.08l0.25,0.45v17.95h-4.75V134.43l0.25-.45H509.6v-4.25H530V134Z" transform="translate(-414.48 -115.6)"/><path class="cls-1" d="M546.35,152.38H541.6V129.73h4.75v22.64Z" transform="translate(-414.48 -115.6)"/><path class="cls-1" d="M580.59,152.38h-4l-10.2-12.47-1.68-2.66h-0.06v15.12h-4.75V129.73h4l10.31,12.47,1.57,2.57h0.06v-15h4.75v22.64Z" transform="translate(-414.48 -115.6)"/><path class="cls-1" d="M617,129.73L606.86,143v9.34h-4.78V143l-10.18-13.31h6l5.25,7.13,1.31,2.24h0.06l1.31-2.24,5.28-7.13H617Z" transform="translate(-414.48 -115.6)"/><path class="cls-2" d="M417.61,122.65h-3v-7h3c3,0,3.52,1.9,3.52,3.49S420.59,122.65,417.61,122.65ZM417.49,117h-1.55l0.14,0.14v4.08l-0.14.14h1.58c1.81,0,2.08-.92,2.08-2.18S419.31,117,417.49,117Z" transform="translate(-414.48 -115.6)"/><path class="cls-2" d="M425.57,122.65h-1.46v-7h1.46v7Z" transform="translate(-414.48 -115.6)"/><path class="cls-2" d="M435.6,122.66h-1.27V122a2.94,2.94,0,0,1-2,.74c-2.36,0-3.72-1.38-3.72-3.51a3.44,3.44,0,0,1,3.77-3.63,3.94,3.94,0,0,1,2.88,1.08l-1,1a2.35,2.35,0,0,0-1.88-.79,2.05,2.05,0,0,0-2.28,2.33,2,2,0,0,0,2.23,2.21,1.77,1.77,0,0,0,1.92-1.49l0.15-.14H432v-1.3h3.65v4.15Z" transform="translate(-414.48 -115.6)"/><path class="cls-2" d="M440.38,122.65h-1.46v-7h1.46v7Z" transform="translate(-414.48 -115.6)"/><path class="cls-2" d="M449.38,117h-2.49l0.08,0.14v5.52H445.5v-5.52l0.08-.14h-2.49v-1.31h6.28V117Z" transform="translate(-414.48 -115.6)"/><path class="cls-2" d="M458.62,122.65H457l-0.73-1.53,0.09-.13h-3.5l0.09,0.13-0.72,1.53h-1.61l3.36-7h1.29Zm-2.9-2.88-0.15-.14-0.72-1.51-0.21-.64h0l-0.21.63-0.72,1.51-0.15.14h2.19Z" transform="translate(-414.48 -115.6)"/><path class="cls-2" d="M466.61,122.65h-5.36v-7h1.46v5.53l-0.13.13h4v1.31Z" transform="translate(-414.48 -115.6)"/></svg>